<svg xmlns="http://www.w3.org/2000/svg" viewBox="0 0 900 600"><defs><linearGradient id="g" x1="0" x2="1" y1="0" y2="1"><stop stop-color="#06b6d4"/><stop offset="1" stop-color="#22c55e"/></linearGradient></defs><rect width="900" height="600" rx="40" fill="url(#g)"/><path d="M140 90h620a40 40 0 0 1 40 40v340a40 40 0 0 1-40 40H140a40 40 0 0 1-40-40V130a40 40 0 0 1 40-40Z" fill="#fff" opacity=".22"/><rect x="330" y="75" width="240" height="450" rx="42" fill="#0f172a"/><rect x="355" y="115" width="190" height="370" rx="28" fill="#f8fafc"/><circle cx="450" cy="455" r="14" fill="#cbd5e1"/><rect x="380" y="150" width="140" height="35" rx="12" fill="#bae6fd"/><rect x="380" y="220" width="140" height="100" rx="24" fill="#dcfce7"/><rect x="380" y="350" width="140" height="28" rx="10" fill="#67e8f9"/></svg>
